<svg width="1280" height="720" xmlns="http://www.w3.org/2000/svg" xmlns:xlink="http://www.w3.org/1999/xlink" overflow="hidden"><g><rect x="0" y="0" width="1280" height="720" fill="#FFFFFF"/><text font-family="Yu Gothic,Yu Gothic_MSFontService,sans-serif" font-weight="400" font-size="16" transform="translate(237.297 93)">idle</text><path d="M6.03798e-07-1 16-0.99999 16 1.00001-6.03798e-07 1ZM22-0.999987 38-0.999977 38 1.00002 22 1.00001ZM44-0.999973 60-0.999964 60 1.00004 44 1.00003ZM66-0.99996 82-0.99995 82 1.00005 66 1.00004ZM88-0.999947 104-0.999937 104 1.00006 88 1.00005ZM110-0.999934 126-0.999924 126 1.00008 110 1.00007ZM132-0.99992 148-0.999911 148 1.00009 132 1.00008ZM154-0.999907 167.211-0.999899 167.211 1.0001 154 1.00009ZM165.878-3.9999 173.878 0.000104987 165.878 4.0001Z" transform="matrix(-1 0 0 1 455.878 254)"/><text font-family="Yu Gothic,Yu Gothic_MSFontService,sans-serif" font-weight="400" font-size="16" transform="translate(337.131 59)">re</text><text font-family="Yu Gothic,Yu Gothic_MSFontService,sans-serif" font-weight="400" font-size="16" transform="translate(351.964 59)">quest</text><path d="M266.5 102C266.5 97.8579 270.082 94.5001 274.5 94.5001 278.918 94.5001 282.5 97.8579 282.5 102 282.5 106.142 278.918 109.5 274.5 109.5 270.082 109.5 266.5 106.142 266.5 102Z" stroke="#000000" stroke-width="1.33333" stroke-miterlimit="8" fill="#FFFFFF" fill-rule="evenodd"/><path d="M644.5 103.5C644.5 99.0818 648.082 95.5001 652.5 95.5001 656.918 95.5001 660.5 99.0818 660.5 103.5 660.5 107.918 656.918 111.5 652.5 111.5 648.082 111.5 644.5 107.918 644.5 103.5Z" stroke="#000000" stroke-width="1.33333" stroke-miterlimit="8" fill="#FFFFFF" fill-rule="evenodd"/><path d="M0.204018 0.978967-2.25038 1.49047-1.93224 1.36435-4.36743 2.85531-4.18126 2.70834-6.57805 5.11347-6.47441 4.99129-8.81361 8.2453-8.75319 8.15042-11.0156 12.188-10.9779 12.1137-13.1443 16.8696-13.1193 16.8096-15.1705 22.2184-15.153 22.1683-17.0698 28.1648-17.057 28.1214-18.8202 34.6403-18.8105 34.6015-20.4009 41.5775-20.3935 41.5417-21.7918 48.9094-21.786 48.8754-22.9732 56.5697-22.9668 56.52-24.6308 72.6267-24.6261 72.5593-25.2149 89.1885-25.215 89.1161-24.6001 105.745-24.6052 105.675-22.8677 121.782-22.8747 121.73-21.635 129.424-21.6414 129.389-20.1812 136.757-20.1893 136.719-18.5286 143.695-18.5391 143.655-16.698 150.174-16.7118 150.129-14.7103 156.126-14.7291 156.074-12.5873 161.483-12.614 161.422-10.3519 166.177-10.3918 166.102-8.02944 170.14-8.0928 170.044-5.65025 173.298-5.88432 173.074-4.12433 174.281-5.2557 175.931-7.15115 174.63-9.72673 171.199-12.1396 167.075-14.4345 162.25-16.5987 156.785-18.6163 150.74-20.4694 144.179-22.1393 137.164-23.6067 129.76-24.8534 122.022-26.5975 105.854-27.2149 89.1538-26.6237 72.4548-24.9536 56.2895-23.76 48.5534-22.355 41.1508-20.7561 34.1375-18.9817 27.5774-17.05 21.5341-14.9779 16.0701-12.7807 11.2467-10.4704 7.12364-8.05145 3.75864-5.51362 1.21198-2.82844-0.432035-0.204018-0.978967ZM-3.93955 170.957 1.15832 178.306-7.77982 177.975Z" transform="matrix(1.83697e-16 1 1 -1.83697e-16 279 96.0001)"/><path d="M0.204018 0.978967-2.25038 1.49047-1.93224 1.36435-4.36743 2.85531-4.18126 2.70834-6.57805 5.11347-6.47441 4.99129-8.81361 8.2453-8.75319 8.15042-10.3343 10.9721-12.0791 9.99448-10.4704 7.12364-8.05145 3.75864-5.51362 1.21198-2.82844-0.432035-0.204018-0.978967ZM-12.8874 16.3056-13.1443 16.8696-13.1193 16.8096-15.1705 22.2184-15.153 22.1683-17.0698 28.1648-17.057 28.1214-17.9187 31.3071-19.8493 30.7849-18.9817 27.5774-17.05 21.5341-14.9779 16.0701-14.7075 15.4765ZM-19.3767 37.0848-20.4009 41.5775-20.3935 41.5417-21.7918 48.9094-21.786 48.8754-22.3796 52.7227-24.3562 52.4177-23.76 48.5534-22.355 41.1508-21.3266 36.6402ZM-23.1834 58.6163-24.6308 72.6267-24.6261 72.5593-24.6939 74.4731-26.6926 74.4024-26.6237 72.4548-25.1728 58.4107ZM-24.9062 80.4694-25.2149 89.1885-25.215 89.1161-24.9462 96.3866-26.9448 96.4605-27.2149 89.1538-26.9049 80.3986ZM-24.7245 102.382-24.6001 105.745-24.6052 105.675-23.2501 118.237-25.2386 118.452-26.5975 105.854-26.7231 102.456ZM-22.4874 124.134-21.635 129.424-21.6414 129.389-20.1812 136.757-20.1893 136.719-19.4644 139.764-21.41 140.228-22.1393 137.164-23.6067 129.76-24.4619 124.452ZM-18.0066 145.541-16.698 150.174-16.7118 150.129-14.7103 156.126-14.7291 156.074-12.9384 160.596-14.7979 161.333-16.5987 156.785-18.6163 150.74-19.9313 146.084ZM-10.4464 165.979-10.3519 166.177-10.3918 166.102-8.02944 170.14-8.0928 170.044-5.65025 173.298-5.88432 173.074-4.12433 174.281-5.2557 175.931-7.15115 174.63-9.72673 171.199-12.1396 167.075-12.2525 166.838ZM-3.93955 170.957 1.15832 178.306-7.77982 177.975Z" transform="matrix(-6.12323e-17 -1 -1 6.12323e-17 457.306 108.158)"/><path d="M648.285 108.204 647.738 110.828 646.094 113.514 643.547 116.051 640.182 118.47 637.312 120.079 636.334 118.334 639.156 116.753 639.061 116.814 642.315 114.474 642.193 114.578 644.598 112.181 644.451 112.367 645.942 109.932 645.816 110.25 646.327 107.796ZM631.83 122.707 631.236 122.978 625.772 125.05 619.729 126.982 616.521 127.849 615.999 125.919 619.185 125.057 619.141 125.07 625.138 123.153 625.088 123.171 630.497 121.119 630.437 121.144 631.001 120.887ZM610.666 129.327 606.155 130.355 598.753 131.76 594.888 132.356 594.583 130.38 598.431 129.786 598.397 129.792 605.764 128.393 605.729 128.401 610.221 127.377ZM588.895 133.173 574.851 134.624 572.904 134.693 572.833 132.694 574.747 132.626 574.679 132.631 588.69 131.183ZM566.908 134.905 558.154 135.215 550.848 134.969 550.915 132.97 558.187 133.215 558.118 133.215 566.837 132.906ZM544.852 134.768 541.458 134.654 528.85 133.417 529.045 131.427 541.622 132.66 541.557 132.656 544.919 132.769ZM522.845 132.71 517.562 131.936 510.161 130.603 507.026 129.925 507.449 127.97 510.567 128.645 510.532 128.638 517.9 129.965 517.868 129.96 523.135 130.731ZM501.142 128.571 496.591 127.402 490.549 125.569 485.768 123.848 486.445 121.966 491.203 123.679 491.154 123.663 497.151 125.482 497.109 125.47 501.64 126.633ZM480.118 121.44 476.143 119.326 472.686 116.968 471.719 115.538 473.376 114.417 474.236 115.689 473.971 115.423 477.225 117.643 477.131 117.586 481.057 119.674ZM469.87 118.235 469 109.333 476.644 113.978Z"/><path d="M468.021 98.1293 468.568 95.5049 470.212 92.8197 472.759 90.2819 476.124 87.8629 480.247 85.5526 485.07 83.3555 490.534 81.2834 496.577 79.3516 503.137 77.5773 510.151 75.9784 517.553 74.5734 525.289 73.3797 541.455 71.7097 558.152 71.1185 574.848 71.6796 591.01 73.2644 598.744 74.397 606.145 75.7303 613.157 77.2475 619.715 78.9311 625.757 80.7641 631.219 82.7302 636.041 84.8148 640.163 87.007 643.62 89.3658 644.587 90.7952 642.93 91.9159 642.07 90.6446 642.335 90.9103 639.081 88.69 639.175 88.7469 635.137 86.5996 635.21 86.6346 630.454 84.5784 630.512 84.6014 625.104 82.6545 625.152 82.6706 619.156 80.8513 619.197 80.8629 612.678 79.1894 612.715 79.1982 605.74 77.6887 605.774 77.6955 598.406 76.3682 598.438 76.3735 590.744 75.2467 590.791 75.2525 574.685 73.6731 574.749 73.6773 558.12 73.1185 558.188 73.1184 541.559 73.7072 541.627 73.7026 525.52 75.3665 525.57 75.3601 517.875 76.5473 517.909 76.5415 510.542 77.9399 510.577 77.9324 503.602 79.5228 503.64 79.5131 497.121 81.2763 497.165 81.2635 491.168 83.1803 491.218 83.1628 485.81 85.214 485.87 85.189 481.114 87.3554 481.188 87.3177 477.15 89.5801 477.245 89.5197 473.991 91.8589 474.113 91.7553 471.708 94.1521 471.855 93.9659 470.364 96.4011 470.49 96.083 469.979 98.5374ZM646.436 88.0982 647.306 97 639.662 92.3552Z"/><path d="M455.5 103.5C455.5 99.0818 459.082 95.5001 463.5 95.5001 467.918 95.5001 471.5 99.0818 471.5 103.5 471.5 107.918 467.918 111.5 463.5 111.5 459.082 111.5 455.5 107.918 455.5 103.5Z" stroke="#000000" stroke-width="1.33333" stroke-miterlimit="8" fill="#FFFFFF" fill-rule="evenodd"/><path d="M833.5 103.5C833.5 99.0818 837.082 95.5001 841.5 95.5001 845.918 95.5001 849.5 99.0818 849.5 103.5 849.5 107.918 845.918 111.5 841.5 111.5 837.082 111.5 833.5 107.918 833.5 103.5Z" stroke="#000000" stroke-width="1.33333" stroke-miterlimit="8" fill="#FFFFFF" fill-rule="evenodd"/><path d="M837.285 108.204 836.738 110.828 835.094 113.514 832.547 116.051 829.182 118.47 826.312 120.079 825.334 118.334 828.156 116.753 828.061 116.814 831.315 114.474 831.193 114.578 833.598 112.181 833.451 112.367 834.942 109.932 834.816 110.25 835.327 107.796ZM820.83 122.707 820.236 122.978 814.772 125.05 808.729 126.982 805.521 127.849 804.999 125.919 808.185 125.057 808.141 125.07 814.138 123.153 814.088 123.171 819.497 121.119 819.437 121.144 820.001 120.887ZM799.666 129.327 795.155 130.355 787.753 131.76 783.888 132.356 783.583 130.38 787.431 129.786 787.397 129.792 794.764 128.393 794.729 128.401 799.221 127.377ZM777.895 133.173 763.851 134.624 761.904 134.693 761.833 132.694 763.747 132.626 763.679 132.631 777.69 131.183ZM755.908 134.905 747.154 135.215 739.848 134.969 739.915 132.97 747.187 133.215 747.118 133.215 755.837 132.906ZM733.852 134.768 730.458 134.654 717.85 133.417 718.045 131.427 730.622 132.66 730.557 132.656 733.919 132.769ZM711.845 132.71 706.562 131.936 699.161 130.603 696.026 129.925 696.449 127.97 699.567 128.645 699.532 128.638 706.9 129.965 706.868 129.96 712.135 130.731ZM690.142 128.571 685.591 127.402 679.549 125.569 674.768 123.848 675.445 121.966 680.203 123.679 680.154 123.663 686.151 125.482 686.109 125.47 690.64 126.633ZM669.118 121.44 665.143 119.326 661.686 116.968 660.719 115.538 662.376 114.417 663.236 115.689 662.971 115.423 666.225 117.643 666.131 117.586 670.057 119.674ZM658.87 118.235 658 109.333 665.644 113.978Z"/><path d="M657.021 98.1293 657.568 95.5049 659.212 92.8197 661.759 90.2819 665.124 87.8629 669.247 85.5526 674.07 83.3555 679.534 81.2834 685.577 79.3516 692.137 77.5773 699.151 75.9784 706.553 74.5734 714.289 73.3797 730.455 71.7097 747.152 71.1185 763.848 71.6796 780.01 73.2644 787.744 74.397 795.145 75.7303 802.157 77.2475 808.715 78.9311 814.757 80.7641 820.219 82.7302 825.041 84.8148 829.163 87.007 832.62 89.3658 833.587 90.7952 831.93 91.9159 831.07 90.6446 831.335 90.9103 828.081 88.69 828.175 88.7469 824.137 86.5996 824.21 86.6346 819.454 84.5784 819.512 84.6014 814.104 82.6545 814.152 82.6706 808.156 80.8513 808.197 80.8629 801.678 79.1894 801.715 79.1982 794.74 77.6887 794.774 77.6955 787.406 76.3682 787.438 76.3735 779.744 75.2467 779.791 75.2525 763.685 73.6731 763.749 73.6773 747.12 73.1185 747.188 73.1184 730.559 73.7072 730.627 73.7026 714.52 75.3665 714.57 75.3601 706.875 76.5473 706.909 76.5415 699.542 77.9399 699.577 77.9324 692.602 79.5228 692.64 79.5131 686.121 81.2763 686.165 81.2635 680.168 83.1803 680.218 83.1628 674.81 85.214 674.87 85.189 670.114 87.3554 670.188 87.3177 666.15 89.5801 666.245 89.5197 662.991 91.8589 663.113 91.7553 660.708 94.1521 660.855 93.9659 659.364 96.4011 659.49 96.083 658.979 98.5374ZM835.436 88.0982 836.306 97 828.662 92.3552Z"/><path d="M1026.29 108.204 1025.74 110.828 1024.09 113.514 1021.55 116.051 1018.18 118.47 1015.31 120.079 1014.33 118.334 1017.16 116.753 1017.06 116.814 1020.31 114.474 1020.19 114.578 1022.6 112.181 1022.45 112.367 1023.94 109.932 1023.82 110.25 1024.33 107.796ZM1009.83 122.707 1009.24 122.978 1003.77 125.05 997.729 126.982 994.521 127.849 993.999 125.919 997.185 125.057 997.141 125.07 1003.14 123.153 1003.09 123.171 1008.5 121.119 1008.44 121.144 1009 120.887ZM988.666 129.327 984.155 130.355 976.753 131.76 972.888 132.356 972.583 130.38 976.431 129.786 976.397 129.792 983.764 128.393 983.729 128.401 988.221 127.377ZM966.895 133.173 952.851 134.624 950.904 134.693 950.833 132.694 952.747 132.626 952.679 132.631 966.69 131.183ZM944.908 134.905 936.154 135.215 928.848 134.969 928.915 132.97 936.187 133.215 936.118 133.215 944.837 132.906ZM922.852 134.768 919.458 134.654 906.85 133.417 907.045 131.427 919.622 132.66 919.557 132.656 922.919 132.769ZM900.845 132.71 895.562 131.936 888.161 130.603 885.026 129.925 885.449 127.97 888.567 128.645 888.532 128.638 895.9 129.965 895.868 129.96 901.135 130.731ZM879.142 128.571 874.591 127.402 868.549 125.569 863.768 123.848 864.445 121.966 869.203 123.679 869.154 123.663 875.151 125.482 875.109 125.47 879.64 126.633ZM858.118 121.44 854.143 119.326 850.686 116.968 849.719 115.538 851.376 114.417 852.236 115.689 851.971 115.423 855.225 117.643 855.131 117.586 859.057 119.674ZM847.87 118.235 847 109.333 854.644 113.978Z"/><path d="M846.021 98.1293 846.568 95.5049 848.212 92.8197 850.759 90.2819 854.124 87.8629 858.247 85.5526 863.07 83.3555 868.534 81.2834 874.577 79.3516 881.137 77.5773 888.151 75.9784 895.553 74.5734 903.289 73.3797 919.455 71.7097 936.152 71.1185 952.848 71.6796 969.01 73.2644 976.744 74.397 984.145 75.7303 991.157 77.2475 997.715 78.9311 1003.76 80.7641 1009.22 82.7302 1014.04 84.8148 1018.16 87.007 1021.62 89.3658 1022.59 90.7952 1020.93 91.9159 1020.07 90.6446 1020.33 90.9103 1017.08 88.69 1017.17 88.7469 1013.14 86.5996 1013.21 86.6346 1008.45 84.5784 1008.51 84.6014 1003.1 82.6545 1003.15 82.6706 997.156 80.8513 997.197 80.8629 990.678 79.1894 990.715 79.1982 983.74 77.6887 983.774 77.6955 976.406 76.3682 976.438 76.3735 968.744 75.2467 968.791 75.2525 952.685 73.6731 952.749 73.6773 936.12 73.1185 936.188 73.1184 919.559 73.7072 919.627 73.7026 903.52 75.3665 903.57 75.3601 895.875 76.5473 895.909 76.5415 888.542 77.9399 888.577 77.9324 881.602 79.5228 881.64 79.5131 875.121 81.2763 875.165 81.2635 869.168 83.1803 869.218 83.1628 863.81 85.214 863.87 85.189 859.114 87.3554 859.188 87.3177 855.15 89.5801 855.245 89.5197 851.991 91.8589 852.113 91.7553 849.708 94.1521 849.855 93.9659 848.364 96.4011 848.49 96.083 847.979 98.5374ZM1024.44 88.0982 1025.31 97 1017.66 92.3552Z"/><text font-family="Yu Gothic,Yu Gothic_MSFontService,sans-serif" font-weight="400" font-size="16" transform="translate(187.261 265)">shutdown</text><path d="M266.5 255C266.5 250.858 270.082 247.5 274.5 247.5 278.918 247.5 282.5 250.858 282.5 255 282.5 259.142 278.918 262.5 274.5 262.5 270.082 262.5 266.5 259.142 266.5 255Z" stroke="#000000" stroke-width="1.33333" stroke-miterlimit="8" fill="#FFFFFF" fill-rule="evenodd"/><path d="M644.5 255C644.5 250.858 648.082 247.5 652.5 247.5 656.918 247.5 660.5 250.858 660.5 255 660.5 259.142 656.918 262.5 652.5 262.5 648.082 262.5 644.5 259.142 644.5 255Z" stroke="#000000" stroke-width="1.33333" stroke-miterlimit="8" fill="#FFFFFF" fill-rule="evenodd"/><path d="M455.5 255C455.5 250.858 459.082 247.5 463.5 247.5 467.918 247.5 471.5 250.858 471.5 255 471.5 259.142 467.918 262.5 463.5 262.5 459.082 262.5 455.5 259.142 455.5 255Z" stroke="#000000" stroke-width="1.33333" stroke-miterlimit="8" fill="#FFFFFF" fill-rule="evenodd"/><path d="M833.5 255C833.5 250.858 837.082 247.5 841.5 247.5 845.918 247.5 849.5 250.858 849.5 255 849.5 259.142 845.918 262.5 841.5 262.5 837.082 262.5 833.5 259.142 833.5 255Z" stroke="#000000" stroke-width="1.33333" stroke-miterlimit="8" fill="#FFFFFF" fill-rule="evenodd"/><text font-family="Yu Gothic,Yu Gothic_MSFontService,sans-serif" font-weight="400" font-size="16" transform="translate(454.079 77)">p1</text><text font-family="Yu Gothic,Yu Gothic_MSFontService,sans-serif" font-weight="400" font-size="16" transform="translate(643.772 77)">p2</text><text font-family="Yu Gothic,Yu Gothic_MSFontService,sans-serif" font-weight="400" font-size="16" transform="translate(832.074 77)">p3</text><text font-family="Yu Gothic,Yu Gothic_MSFontService,sans-serif" font-weight="400" font-size="16" transform="translate(453.489 282)">c1</text><text font-family="Yu Gothic,Yu Gothic_MSFontService,sans-serif" font-weight="400" font-size="16" transform="translate(643.182 282)">c</text><text font-family="Yu Gothic,Yu Gothic_MSFontService,sans-serif" font-weight="400" font-size="16" transform="translate(651.515 282)">2</text><text font-family="Yu Gothic,Yu Gothic_MSFontService,sans-serif" font-weight="400" font-size="16" transform="translate(831.484 282)">c3</text><path d="M6.03798e-07-1 16-0.99999 16 1.00001-6.03798e-07 1ZM22-0.999987 38-0.999977 38 1.00002 22 1.00001ZM44-0.999973 60-0.999964 60 1.00004 44 1.00003ZM66-0.99996 82-0.99995 82 1.00005 66 1.00004ZM88-0.999947 104-0.999937 104 1.00006 88 1.00005ZM110-0.999934 126-0.999924 126 1.00008 110 1.00007ZM132-0.99992 148-0.999911 148 1.00009 132 1.00008ZM154-0.999907 167.211-0.999899 167.211 1.0001 154 1.00009ZM165.878-3.9999 173.878 0.000104987 165.878 4.0001Z" transform="matrix(-1 0 0 1 644.878 254)"/><path d="M6.03798e-07-1 16-0.99999 16 1.00001-6.03798e-07 1ZM22-0.999987 38-0.999977 38 1.00002 22 1.00001ZM44-0.999973 60-0.999964 60 1.00004 44 1.00003ZM66-0.99996 82-0.99995 82 1.00005 66 1.00004ZM88-0.999947 104-0.999937 104 1.00006 88 1.00005ZM110-0.999934 126-0.999924 126 1.00008 110 1.00007ZM132-0.99992 148-0.999911 148 1.00009 132 1.00008ZM154-0.999907 167.211-0.999899 167.211 1.0001 154 1.00009ZM165.878-3.9999 173.878 0.000104987 165.878 4.0001Z" transform="matrix(-1 0 0 1 833.878 254)"/><path d="M6.03798e-07-1 16-0.99999 16 1.00001-6.03798e-07 1ZM22-0.999987 38-0.999977 38 1.00002 22 1.00001ZM44-0.999973 60-0.999964 60 1.00004 44 1.00003ZM66-0.99996 82-0.99995 82 1.00005 66 1.00004ZM88-0.999947 104-0.999937 104 1.00006 88 1.00005ZM110-0.999934 126-0.999924 126 1.00008 110 1.00007ZM132-0.99992 148-0.999911 148 1.00009 132 1.00008ZM154-0.999907 167.211-0.999899 167.211 1.0001 154 1.00009ZM165.878-3.9999 173.878 0.000104987 165.878 4.0001Z" transform="matrix(-1 0 0 1 1022.88 254)"/><text font-family="Yu Gothic,Yu Gothic_MSFontService,sans-serif" font-weight="400" font-size="16" transform="translate(336.531 124)">re</text><text font-family="Yu Gothic,Yu Gothic_MSFontService,sans-serif" font-weight="400" font-size="16" transform="translate(351.364 124)">sponse</text><path d="M463.833 111.5 463.833 114.167 463.167 114.167 463.167 111.5ZM463.833 116.167 463.833 118.833 463.167 118.833 463.167 116.167ZM463.833 120.833 463.833 123.5 463.167 123.5 463.167 120.833ZM463.833 125.5 463.833 128.167 463.167 128.167 463.167 125.5ZM463.833 130.167 463.833 132.833 463.167 132.833 463.167 130.167ZM463.833 134.833 463.833 137.5 463.167 137.5 463.167 134.833ZM463.833 139.5 463.833 142.167 463.167 142.167 463.167 139.5ZM463.833 144.167 463.833 146.833 463.167 146.833 463.167 144.167ZM463.833 148.833 463.833 151.5 463.167 151.5 463.167 148.833ZM463.833 153.5 463.833 156.167 463.167 156.167 463.167 153.5ZM463.833 158.167 463.833 160.833 463.167 160.833 463.167 158.167ZM463.833 162.833 463.833 165.5 463.167 165.5 463.167 162.833ZM463.833 167.5 463.833 170.167 463.167 170.167 463.167 167.5ZM463.833 172.167 463.833 174.833 463.167 174.833 463.167 172.167ZM463.833 176.833 463.833 179.5 463.167 179.5 463.167 176.833ZM463.833 181.5 463.833 184.167 463.167 184.167 463.167 181.5ZM463.833 186.167 463.833 188.833 463.167 188.833 463.167 186.167ZM463.833 190.833 463.833 193.5 463.167 193.5 463.167 190.833ZM463.833 195.5 463.833 198.167 463.167 198.167 463.167 195.5ZM463.833 200.167 463.833 202.833 463.167 202.833 463.167 200.167ZM463.833 204.833 463.833 207.5 463.167 207.5 463.167 204.833ZM463.833 209.5 463.833 212.167 463.167 212.167 463.167 209.5ZM463.833 214.167 463.833 216.833 463.167 216.833 463.167 214.167ZM463.833 218.833 463.833 221.5 463.167 221.5 463.167 218.833ZM463.833 223.5 463.833 226.167 463.167 226.167 463.167 223.5ZM463.833 228.167 463.833 230.833 463.167 230.833 463.167 228.167ZM463.833 232.833 463.833 235.5 463.167 235.5 463.167 232.833ZM463.833 237.5 463.833 240.167 463.167 240.167 463.167 237.5ZM463.833 242.167 463.833 244.833 463.167 244.833 463.167 242.167ZM463.833 246.833 463.833 246.918 463.167 246.918 463.167 246.833ZM468.455 239.086 463.5 247.58 458.546 239.086C458.453 238.927 458.507 238.723 458.666 238.63 458.825 238.537 459.029 238.591 459.121 238.75L463.788 246.75 463.212 246.75 467.879 238.75C467.972 238.591 468.176 238.537 468.335 238.63 468.494 238.723 468.548 238.927 468.455 239.086Z"/><path d="M652.833 111.5 652.833 114.167 652.167 114.167 652.167 111.5ZM652.833 116.167 652.833 118.833 652.167 118.833 652.167 116.167ZM652.833 120.833 652.833 123.5 652.167 123.5 652.167 120.833ZM652.833 125.5 652.833 128.167 652.167 128.167 652.167 125.5ZM652.833 130.167 652.833 132.833 652.167 132.833 652.167 130.167ZM652.833 134.833 652.833 137.5 652.167 137.5 652.167 134.833ZM652.833 139.5 652.833 142.167 652.167 142.167 652.167 139.5ZM652.833 144.167 652.833 146.833 652.167 146.833 652.167 144.167ZM652.833 148.833 652.833 151.5 652.167 151.5 652.167 148.833ZM652.833 153.5 652.833 156.167 652.167 156.167 652.167 153.5ZM652.833 158.167 652.833 160.833 652.167 160.833 652.167 158.167ZM652.833 162.833 652.833 165.5 652.167 165.5 652.167 162.833ZM652.833 167.5 652.833 170.167 652.167 170.167 652.167 167.5ZM652.833 172.167 652.833 174.833 652.167 174.833 652.167 172.167ZM652.833 176.833 652.833 179.5 652.167 179.5 652.167 176.833ZM652.833 181.5 652.833 184.167 652.167 184.167 652.167 181.5ZM652.833 186.167 652.833 188.833 652.167 188.833 652.167 186.167ZM652.833 190.833 652.833 193.5 652.167 193.5 652.167 190.833ZM652.833 195.5 652.833 198.167 652.167 198.167 652.167 195.5ZM652.833 200.167 652.833 202.833 652.167 202.833 652.167 200.167ZM652.833 204.833 652.833 207.5 652.167 207.5 652.167 204.833ZM652.833 209.5 652.833 212.167 652.167 212.167 652.167 209.5ZM652.833 214.167 652.833 216.833 652.167 216.833 652.167 214.167ZM652.833 218.833 652.833 221.5 652.167 221.5 652.167 218.833ZM652.833 223.5 652.833 226.167 652.167 226.167 652.167 223.5ZM652.833 228.167 652.833 230.833 652.167 230.833 652.167 228.167ZM652.833 232.833 652.833 235.5 652.167 235.5 652.167 232.833ZM652.833 237.5 652.833 240.167 652.167 240.167 652.167 237.5ZM652.833 242.167 652.833 244.833 652.167 244.833 652.167 242.167ZM652.833 246.833 652.833 246.918 652.167 246.918 652.167 246.833ZM657.455 239.086 652.5 247.58 647.546 239.086C647.453 238.927 647.507 238.723 647.666 238.63 647.825 238.537 648.029 238.591 648.121 238.75L652.788 246.75 652.212 246.75 656.879 238.75C656.972 238.591 657.176 238.537 657.335 238.63 657.494 238.723 657.547 238.927 657.455 239.086Z"/><path d="M841.833 111.5 841.833 114.167 841.167 114.167 841.167 111.5ZM841.833 116.167 841.833 118.833 841.167 118.833 841.167 116.167ZM841.833 120.833 841.833 123.5 841.167 123.5 841.167 120.833ZM841.833 125.5 841.833 128.167 841.167 128.167 841.167 125.5ZM841.833 130.167 841.833 132.833 841.167 132.833 841.167 130.167ZM841.833 134.833 841.833 137.5 841.167 137.5 841.167 134.833ZM841.833 139.5 841.833 142.167 841.167 142.167 841.167 139.5ZM841.833 144.167 841.833 146.833 841.167 146.833 841.167 144.167ZM841.833 148.833 841.833 151.5 841.167 151.5 841.167 148.833ZM841.833 153.5 841.833 156.167 841.167 156.167 841.167 153.5ZM841.833 158.167 841.833 160.833 841.167 160.833 841.167 158.167ZM841.833 162.833 841.833 165.5 841.167 165.5 841.167 162.833ZM841.833 167.5 841.833 170.167 841.167 170.167 841.167 167.5ZM841.833 172.167 841.833 174.833 841.167 174.833 841.167 172.167ZM841.833 176.833 841.833 179.5 841.167 179.5 841.167 176.833ZM841.833 181.5 841.833 184.167 841.167 184.167 841.167 181.5ZM841.833 186.167 841.833 188.833 841.167 188.833 841.167 186.167ZM841.833 190.833 841.833 193.5 841.167 193.5 841.167 190.833ZM841.833 195.5 841.833 198.167 841.167 198.167 841.167 195.5ZM841.833 200.167 841.833 202.833 841.167 202.833 841.167 200.167ZM841.833 204.833 841.833 207.5 841.167 207.5 841.167 204.833ZM841.833 209.5 841.833 212.167 841.167 212.167 841.167 209.5ZM841.833 214.167 841.833 216.833 841.167 216.833 841.167 214.167ZM841.833 218.833 841.833 221.5 841.167 221.5 841.167 218.833ZM841.833 223.5 841.833 226.167 841.167 226.167 841.167 223.5ZM841.833 228.167 841.833 230.833 841.167 230.833 841.167 228.167ZM841.833 232.833 841.833 235.5 841.167 235.5 841.167 232.833ZM841.833 237.5 841.833 240.167 841.167 240.167 841.167 237.5ZM841.833 242.167 841.833 244.833 841.167 244.833 841.167 242.167ZM841.833 246.833 841.833 246.918 841.167 246.918 841.167 246.833ZM846.455 239.086 841.5 247.58 836.546 239.086C836.453 238.927 836.507 238.723 836.666 238.63 836.825 238.537 837.029 238.591 837.121 238.75L841.788 246.75 841.212 246.75 845.879 238.75C845.972 238.591 846.176 238.537 846.335 238.63 846.494 238.723 846.547 238.927 846.455 239.086Z"/><path d="M274.833 109.5 274.833 112.167 274.167 112.167 274.167 109.5ZM274.833 114.167 274.833 116.833 274.167 116.833 274.167 114.167ZM274.833 118.833 274.833 121.5 274.167 121.5 274.167 118.833ZM274.833 123.5 274.833 126.167 274.167 126.167 274.167 123.5ZM274.833 128.167 274.833 130.833 274.167 130.833 274.167 128.167ZM274.833 132.833 274.833 135.5 274.167 135.5 274.167 132.833ZM274.833 137.5 274.833 140.167 274.167 140.167 274.167 137.5ZM274.833 142.167 274.833 144.833 274.167 144.833 274.167 142.167ZM274.833 146.833 274.833 149.5 274.167 149.5 274.167 146.833ZM274.833 151.5 274.833 154.167 274.167 154.167 274.167 151.5ZM274.833 156.167 274.833 158.833 274.167 158.833 274.167 156.167ZM274.833 160.833 274.833 163.5 274.167 163.5 274.167 160.833ZM274.833 165.5 274.833 168.167 274.167 168.167 274.167 165.5ZM274.833 170.167 274.833 172.833 274.167 172.833 274.167 170.167ZM274.833 174.833 274.833 177.5 274.167 177.5 274.167 174.833ZM274.833 179.5 274.833 182.167 274.167 182.167 274.167 179.5ZM274.833 184.167 274.833 186.833 274.167 186.833 274.167 184.167ZM274.833 188.833 274.833 191.5 274.167 191.5 274.167 188.833ZM274.833 193.5 274.833 196.167 274.167 196.167 274.167 193.5ZM274.833 198.167 274.833 200.833 274.167 200.833 274.167 198.167ZM274.833 202.833 274.833 205.5 274.167 205.5 274.167 202.833ZM274.833 207.5 274.833 210.167 274.167 210.167 274.167 207.5ZM274.833 212.167 274.833 214.833 274.167 214.833 274.167 212.167ZM274.833 216.833 274.833 219.5 274.167 219.5 274.167 216.833ZM274.833 221.5 274.833 224.167 274.167 224.167 274.167 221.5ZM274.833 226.167 274.833 228.833 274.167 228.833 274.167 226.167ZM274.833 230.833 274.833 233.5 274.167 233.5 274.167 230.833ZM274.833 235.5 274.833 238.167 274.167 238.167 274.167 235.5ZM274.833 240.167 274.833 242.833 274.167 242.833 274.167 240.167ZM274.833 244.833 274.833 246.079 274.167 246.079 274.167 244.833ZM279.455 238.244 274.5 246.738 269.546 238.244C269.453 238.085 269.507 237.881 269.666 237.789 269.825 237.696 270.029 237.75 270.121 237.909L274.788 245.909 274.212 245.909 278.879 237.909C278.972 237.75 279.176 237.696 279.335 237.789 279.494 237.881 279.548 238.085 279.455 238.244Z"/><text font-family="Yu Gothic,Yu Gothic_MSFontService,sans-serif" font-weight="400" font-size="16" transform="translate(519.515 220)">re</text><text font-family="Yu Gothic,Yu Gothic_MSFontService,sans-serif" font-weight="400" font-size="16" transform="translate(534.348 220)">sponse or</text><text font-family="Yu Gothic,Yu Gothic_MSFontService,sans-serif" font-weight="400" font-size="16" transform="translate(519.515 239)">cancel</text><text font-family="Yu Gothic,Yu Gothic_MSFontService,sans-serif" font-weight="400" font-size="24" transform="translate(437.723 386)">Fig.</text><text font-family="Yu Gothic,Yu Gothic_MSFontService,sans-serif" font-weight="400" font-size="24" transform="translate(484.89 386)">1</text><text font-family="Yu Gothic,Yu Gothic_MSFontService,sans-serif" font-weight="400" font-size="24" transform="translate(505.056 386)">セッションの状態遷移</text><path d="M437.723 387.824 514.473 387.824 591.223 387.824 667.973 387.824 744.723 387.824 744.723 388.824 667.973 388.824 591.223 388.824 514.473 388.824 437.723 388.824Z" fill-rule="evenodd"/><path d="M1022.5 103.5C1022.5 99.0818 1026.08 95.5001 1030.5 95.5001 1034.92 95.5001 1038.5 99.0818 1038.5 103.5 1038.5 107.918 1034.92 111.5 1030.5 111.5 1026.08 111.5 1022.5 107.918 1022.5 103.5Z" stroke="#000000" stroke-width="1.33333" stroke-miterlimit="8" fill="#FFFFFF" fill-rule="evenodd"/><path d="M1022.5 255C1022.5 250.858 1026.08 247.5 1030.5 247.5 1034.92 247.5 1038.5 250.858 1038.5 255 1038.5 259.142 1034.92 262.5 1030.5 262.5 1026.08 262.5 1022.5 259.142 1022.5 255Z" stroke="#000000" stroke-width="1.33333" stroke-miterlimit="8" fill="#FFFFFF" fill-rule="evenodd"/><rect x="939" y="35" width="291" height="302" fill="#FFFFFF"/><path d="M954.5 190.5C954.5 188.291 956.515 186.5 959 186.5 961.485 186.5 963.5 188.291 963.5 190.5 963.5 192.709 961.485 194.5 959 194.5 956.515 194.5 954.5 192.709 954.5 190.5Z" stroke="#000000" stroke-width="1.33333" stroke-miterlimit="8" fill-rule="evenodd"/><path d="M999.5 190.5C999.5 188.291 1001.29 186.5 1003.5 186.5 1005.71 186.5 1007.5 188.291 1007.5 190.5 1007.5 192.709 1005.71 194.5 1003.5 194.5 1001.29 194.5 999.5 192.709 999.5 190.5Z" stroke="#000000" stroke-width="1.33333" stroke-miterlimit="8" fill-rule="evenodd"/><path d="M1044.5 190.5C1044.5 188.291 1046.51 186.5 1049 186.5 1051.49 186.5 1053.5 188.291 1053.5 190.5 1053.5 192.709 1051.49 194.5 1049 194.5 1046.51 194.5 1044.5 192.709 1044.5 190.5Z" stroke="#000000" stroke-width="1.33333" stroke-miterlimit="8" fill-rule="evenodd"/><rect x="795" y="175" width="92" height="29" fill="#FFFFFF"/><text font-family="Yu Gothic,Yu Gothic_MSFontService,sans-serif" font-weight="400" font-size="16" transform="translate(804.147 195)">shutdown</text><path d="M103.5 171.5C103.5 167.082 106.858 163.5 111 163.5 115.142 163.5 118.5 167.082 118.5 171.5 118.5 175.918 115.142 179.5 111 179.5 106.858 179.5 103.5 175.918 103.5 171.5Z" stroke="#000000" stroke-width="1.33333" stroke-miterlimit="8" fill="#FFFFFF" fill-rule="evenodd"/><text font-family="Yu Gothic,Yu Gothic_MSFontService,sans-serif" font-weight="400" font-size="16" transform="translate(44.8084 177)">vacant</text><path d="M0.391011-0.920386 144.554 60.3249 143.772 62.1657-0.391011 0.920386ZM144.5 57.0424 150.299 63.8521 141.372 64.4055Z" transform="matrix(1 0 0 -1 116 165.852)"/><path d="M268.084 249.371 121.592 179.764 122.45 177.958 268.942 247.564ZM121.509 183.046 116 176 124.942 175.82Z"/><text font-family="Yu Gothic,Yu Gothic_MSFontService,sans-serif" font-weight="400" font-size="13" transform="translate(110.201 89)">リソース割当</text><text font-family="Yu Gothic,Yu Gothic_MSFontService,sans-serif" font-weight="400" font-size="13" transform="translate(123.535 105)">スレッド</text><text font-family="Yu Gothic,Yu Gothic_MSFontService,sans-serif" font-weight="400" font-size="13" transform="translate(123.535 121)">オブジェクト</text><text font-family="Yu Gothic,Yu Gothic_MSFontService,sans-serif" font-weight="400" font-size="13" transform="translate(123.535 137)">通信</text><text font-family="Yu Gothic,Yu Gothic_MSFontService,sans-serif" font-weight="400" font-size="13" transform="translate(150.201 137)">路</text><text font-family="Yu Gothic,Yu Gothic_MSFontService,sans-serif" font-weight="400" font-size="13" transform="translate(218.686 282)">スレッド終了</text><text font-family="Yu Gothic,Yu Gothic_MSFontService,sans-serif" font-weight="400" font-size="13" transform="translate(218.686 298)">TCP/IP</text><text font-family="Yu Gothic,Yu Gothic_MSFontService,sans-serif" font-weight="400" font-size="13" transform="translate(264.186 298)">通信</text><text font-family="Yu Gothic,Yu Gothic_MSFontService,sans-serif" font-weight="400" font-size="13" transform="translate(290.853 298)">路解放</text><rect x="112" y="194" width="127" height="42" fill="#FFFFFF"/><text font-family="Yu Gothic,Yu Gothic_MSFontService,sans-serif" font-weight="400" font-size="13" transform="translate(121.83 210)">オブジェクト解放</text><text font-family="Yu Gothic,Yu Gothic_MSFontService,sans-serif" font-weight="400" font-size="13" transform="translate(121.83 226)">IPC</text><text font-family="Yu Gothic,Yu Gothic_MSFontService,sans-serif" font-weight="400" font-size="13" transform="translate(143.663 226)">通信路解放</text></g></svg>