<svg width="1280" height="720" xmlns="http://www.w3.org/2000/svg" xmlns:xlink="http://www.w3.org/1999/xlink" overflow="hidden"><g><rect x="0" y="0" width="1280" height="720" fill="#FFFFFF"/><path d="M103.5 58.0001C103.5 53.8579 106.858 50.5001 111 50.5001 115.142 50.5001 118.5 53.8579 118.5 58.0001 118.5 62.1422 115.142 65.5001 111 65.5001 106.858 65.5001 103.5 62.1422 103.5 58.0001Z" stroke="#000000" stroke-width="1.33333" stroke-miterlimit="8" fill="#FFFFFF" fill-rule="evenodd"/><text font-family="Yu Gothic,Yu Gothic_MSFontService,sans-serif" font-weight="400" font-size="16" transform="translate(101.634 41)">ni</text><text font-family="Yu Gothic,Yu Gothic_MSFontService,sans-serif" font-weight="400" font-size="16" transform="translate(115.134 41)">l</text><path d="M103.5 208C103.5 203.858 106.858 200.5 111 200.5 115.142 200.5 118.5 203.858 118.5 208 118.5 212.142 115.142 215.5 111 215.5 106.858 215.5 103.5 212.142 103.5 208Z" stroke="#000000" stroke-width="1.33333" stroke-miterlimit="8" fill-rule="evenodd"/><path d="M1-0.000206208 1.02645 128.253-0.973553 128.254-1 0.000206208ZM4.02617 126.919 0.0278215 134.92-3.97383 126.921Z" transform="matrix(-1 0 0 1 111.028 65)"/><rect x="5" y="85" width="238" height="48" fill="#FFFFFF"/><text font-family="Yu Gothic,Yu Gothic_MSFontService,sans-serif" font-weight="400" font-size="16" transform="translate(14.5688 105)">request message</text><text font-family="Yu Gothic,Yu Gothic_MSFontService,sans-serif" font-weight="400" font-size="16" transform="translate(141.402 105)">受信</text><text font-family="Yu Gothic,Yu Gothic_MSFontService,sans-serif" font-weight="400" font-size="16" transform="translate(14.5688 124)">→</text><text font-family="Yu Gothic,Yu Gothic_MSFontService,sans-serif" font-weight="400" font-size="16" transform="translate(35.0688 124)">response</text><text font-family="Yu Gothic,Yu Gothic_MSFontService,sans-serif" font-weight="400" font-size="16" transform="translate(102.902 124)">オブジェクト</text><text font-family="Yu Gothic,Yu Gothic_MSFontService,sans-serif" font-weight="400" font-size="16" transform="translate(198.902 124)">作成</text><path d="M103.5 578C103.5 573.858 106.858 570.5 111 570.5 115.142 570.5 118.5 573.858 118.5 578 118.5 582.142 115.142 585.5 111 585.5 106.858 585.5 103.5 582.142 103.5 578Z" stroke="#000000" stroke-width="1.33333" stroke-miterlimit="8" fill="#FFFFFF" fill-rule="evenodd"/><text font-family="Yu Gothic,Yu Gothic_MSFontService,sans-serif" font-weight="400" font-size="16" transform="translate(279.165 608)">finished</text><path d="M118 207 232.319 207 232.319 209 118 209ZM230.986 204 238.986 208 230.986 212Z"/><text font-family="Yu Gothic,Yu Gothic_MSFontService,sans-serif" font-weight="400" font-size="16" transform="translate(14.5688 213)">processin</text><text font-family="Yu Gothic,Yu Gothic_MSFontService,sans-serif" font-weight="400" font-size="16" transform="translate(85.9022 213)">g</text><path d="M112 215 112.027 563.052 110.027 563.052 110 215ZM115.027 561.718 111.028 569.719 107.027 561.719Z"/><text font-family="Yu Gothic,Yu Gothic_MSFontService,sans-serif" font-weight="400" font-size="16" transform="translate(452.721 169)">sc</text><text font-family="Yu Gothic,Yu Gothic_MSFontService,sans-serif" font-weight="400" font-size="16" transform="translate(469.221 169)">完了</text><text font-family="Yu Gothic,Yu Gothic_MSFontService,sans-serif" font-weight="400" font-size="16" transform="translate(154.633 200)">sc</text><text font-family="Yu Gothic,Yu Gothic_MSFontService,sans-serif" font-weight="400" font-size="16" transform="translate(171.133 200)">開設</text><text font-family="Yu Gothic,Yu Gothic_MSFontService,sans-serif" font-weight="400" font-size="16" transform="translate(271.605 169)">sc</text><text font-family="Yu Gothic,Yu Gothic_MSFontService,sans-serif" font-weight="400" font-size="16" transform="translate(288.105 169)">閉塞</text><path d="M239.5 208C239.5 203.858 242.858 200.5 247 200.5 251.142 200.5 254.5 203.858 254.5 208 254.5 212.142 251.142 215.5 247 215.5 242.858 215.5 239.5 212.142 239.5 208Z" stroke="#000000" stroke-width="1.33333" stroke-miterlimit="8" fill-rule="evenodd"/><path d="M489.5 209C489.5 204.858 492.858 201.5 497 201.5 501.142 201.5 504.5 204.858 504.5 209 504.5 213.142 501.142 216.5 497 216.5 492.858 216.5 489.5 213.142 489.5 209Z" stroke="#000000" stroke-width="1.33333" stroke-miterlimit="8" fill-rule="evenodd"/><path d="M251.009 202.16 251.227 200.57 251.905 198.895 252.978 197.287 254.43 195.717 258.288 192.758 263.443 189.905 269.784 187.171 277.219 184.565 285.655 182.102 294.995 179.805 305.14 177.693 315.991 175.789 327.447 174.115 339.408 172.695 351.774 171.55 364.451 170.704 383.601 170.182 383.655 172.181 364.525 172.703 364.564 172.701 351.92 173.545 351.946 173.543 339.605 174.685 339.631 174.683 327.696 176.1 327.723 176.096 316.294 177.766 316.322 177.761 305.501 179.66 305.532 179.654 295.42 181.759 295.455 181.751 286.154 184.039 286.195 184.028 277.805 186.477 277.855 186.461 270.478 189.047 270.543 189.022 264.28 191.723 264.369 191.679 259.321 194.472 259.445 194.39 255.715 197.252 255.84 197.137 254.5 198.586 254.598 198.463 253.625 199.921 253.72 199.741 253.127 201.205 253.191 200.965 252.991 202.431ZM382.186 167.219 390.292 171 382.404 175.216Z"/><path d="M0.15379-0.988104 3.4373-0.477053 6.78312 1.05285 10.0071 3.46898 13.105 6.6875 16.0716 10.6414 18.8946 15.2699 21.5571 20.5133 24.0389 26.3118 26.3181 32.6051 28.3717 39.3325 30.1762 46.4327 31.7097 53.8553 33.8528 69.3484 34.4492 78.6444 32.4533 78.7724 31.8593 69.5131 31.8666 69.5861 29.7331 54.1622 29.7443 54.2275 28.2221 46.8595 28.2322 46.9035 26.4392 39.8481 26.4519 39.8938 24.4127 33.2136 24.4289 33.2621 22.1681 27.0196 22.1891 27.0726 19.7313 21.3303 19.759 21.3896 17.129 16.2101 17.1669 16.2781 14.3891 11.7239 14.443 11.8033 11.5421 7.93689 11.6215 8.03024 8.62219 4.9142 8.74295 5.02093 5.66976 2.71778 5.85363 2.827 2.7312 1.39925 2.99326 1.47792-0.15379 0.988104ZM37.4179 77.2789 33.6122 85.3731 29.4202 77.472Z" transform="matrix(1.83697e-16 1 1 -1.83697e-16 252 213)"/><path d="M338.5 247C338.5 242.858 341.858 239.5 346 239.5 350.142 239.5 353.5 242.858 353.5 247 353.5 251.142 350.142 254.5 346 254.5 341.858 254.5 338.5 251.142 338.5 247Z" stroke="#000000" stroke-width="1.33333" stroke-miterlimit="8" fill-rule="evenodd"/><path d="M0.014379-0.999897 12.9763-0.813498 25.8504-0.269593 38.5213 0.607782 50.8881 1.79487 62.8504 3.26799 74.3075 5.00354 85.1591 6.97806 95.3052 9.1683 104.646 11.5514 113.084 14.1051 120.52 16.8088 126.862 19.6449 132.062 22.6283 135.557 26.0209 134.164 27.456 130.759 24.1507 130.958 24.3006 125.91 21.4046 126 21.4501 119.737 18.6492 119.803 18.6762 112.426 15.9941 112.478 16.0114 104.088 13.472 104.13 13.4839 94.8288 11.1108 94.865 11.1193 84.753 8.93647 84.785 8.94283 73.9641 6.97388 73.9933 6.97876 62.5646 5.24751 62.5922 5.25129 50.657 3.78152 50.6837 3.78444 38.3434 2.5999 38.3699 2.60209 25.7257 1.72656 25.7526 1.72806 12.9058 1.18531 12.9337 1.18609-0.014379 0.999897ZM137.603 23.5362 138.292 32.4539 130.745 27.6546Z" transform="matrix(1 0 0 -1 353 246.454)"/><path d="M406.023 170 414.039 170.187 422.025 170.733 437.512 172.802 444.933 174.282 452.032 176.024 458.758 178.007 465.05 180.207 470.848 182.603 476.09 185.173 480.718 187.899 484.672 190.763 487.934 193.794 489.741 196.745 488.036 197.79 486.3 194.956 486.472 195.166 483.356 192.27 483.45 192.347 479.583 189.546 479.663 189.598 475.108 186.916 475.176 186.952 469.996 184.413 470.054 184.439 464.312 182.066 464.364 182.086 458.121 179.903 458.169 179.918 451.489 177.949 451.533 177.961 444.478 176.23 444.52 176.239 437.152 174.77 437.216 174.78 421.792 172.72 421.856 172.727 413.925 172.184 413.97 172.186 405.977 172ZM492.104 194.539 491.373 203.454 484.68 197.521Z"/><path d="M391.5 171.5C391.5 167.082 394.858 163.5 399 163.5 403.142 163.5 406.5 167.082 406.5 171.5 406.5 175.918 403.142 179.5 399 179.5 394.858 179.5 391.5 175.918 391.5 171.5Z" stroke="#000000" stroke-width="1.33333" stroke-miterlimit="8" fill-rule="evenodd"/><path d="M391.5 406C391.5 401.858 394.858 398.5 399 398.5 403.142 398.5 406.5 401.858 406.5 406 406.5 410.142 403.142 413.5 399 413.5 394.858 413.5 391.5 410.142 391.5 406Z" stroke="#000000" stroke-width="1.33333" stroke-miterlimit="8" fill="#FFFFFF" fill-rule="evenodd"/><path d="M489.5 578C489.5 573.858 492.858 570.5 497 570.5 501.142 570.5 504.5 573.858 504.5 578 504.5 582.142 501.142 585.5 497 585.5 492.858 585.5 489.5 582.142 489.5 578Z" stroke="#000000" stroke-width="1.33333" stroke-miterlimit="8" fill="#FFFFFF" fill-rule="evenodd"/><path d="M497 216 497 562.894 495 562.894 495 216ZM500 561.56 496 569.56 492 561.56Z"/><path d="M391.5 578C391.5 573.858 394.858 570.5 399 570.5 403.142 570.5 406.5 573.858 406.5 578 406.5 582.142 403.142 585.5 399 585.5 394.858 585.5 391.5 582.142 391.5 578Z" stroke="#000000" stroke-width="1.33333" stroke-miterlimit="8" fill="#FFFFFF" fill-rule="evenodd"/><path d="M338.5 578C338.5 573.858 341.858 570.5 346 570.5 350.142 570.5 353.5 573.858 353.5 578 353.5 582.142 350.142 585.5 346 585.5 341.858 585.5 338.5 582.142 338.5 578Z" stroke="#000000" stroke-width="1.33333" stroke-miterlimit="8" fill="#FFFFFF" fill-rule="evenodd"/><path d="M399 413 399 563.336 397 563.336 397 413ZM402 562.003 398 570.003 394 562.003Z"/><path d="M399 179 399 391.571 397 391.571 397 179ZM402 390.237 398 398.237 394 390.237Z"/><text font-family="Yu Gothic,Yu Gothic_MSFontService,sans-serif" font-weight="400" font-size="16" transform="translate(414.921 260)">sc</text><text font-family="Yu Gothic,Yu Gothic_MSFontService,sans-serif" font-weight="400" font-size="16" transform="translate(431.421 260)">閉塞</text><text font-family="Yu Gothic,Yu Gothic_MSFontService,sans-serif" font-weight="400" font-size="16" transform="translate(407.361 493)">sc</text><text font-family="Yu Gothic,Yu Gothic_MSFontService,sans-serif" font-weight="400" font-size="16" transform="translate(423.861 493)">完了</text><text font-family="Yu Gothic,Yu Gothic_MSFontService,sans-serif" font-weight="400" font-size="16" transform="translate(241.366 260)">sc</text><text font-family="Yu Gothic,Yu Gothic_MSFontService,sans-serif" font-weight="400" font-size="16" transform="translate(257.866 260)">完了</text><text font-family="Yu Gothic,Yu Gothic_MSFontService,sans-serif" font-weight="400" font-size="16" transform="translate(211.126 229)">sco</text><text font-family="Yu Gothic,Yu Gothic_MSFontService,sans-serif" font-weight="400" font-size="16" transform="translate(364.075 161)">sce</text><text font-family="Yu Gothic,Yu Gothic_MSFontService,sans-serif" font-weight="400" font-size="16" transform="translate(309.405 268)">scc</text><text font-family="Yu Gothic,Yu Gothic_MSFontService,sans-serif" font-weight="400" font-size="16" transform="translate(502.159 229)">scf</text><text font-family="Yu Gothic,Yu Gothic_MSFontService,sans-serif" font-weight="400" font-size="16" transform="translate(408.665 396)">sce_f</text><path d="M96.5001 578.5C96.5001 574.082 100.082 570.5 104.5 570.5L503.5 570.5C507.919 570.5 511.5 574.082 511.5 578.5L511.5 578.5C511.5 582.919 507.918 586.5 503.5 586.5L104.5 586.5C100.082 586.5 96.5001 582.918 96.5001 578.5Z" stroke="#000000" stroke-width="1.33333" stroke-miterlimit="8" fill="#FFFFFF" fill-rule="evenodd"/><rect x="360" y="296" width="75" height="49" fill="#FFFFFF"/><text font-family="Yu Gothic,Yu Gothic_MSFontService,sans-serif" font-weight="400" font-size="16" transform="translate(369.884 316)">body</text><text font-family="Yu Gothic,Yu Gothic_MSFontService,sans-serif" font-weight="400" font-size="16" transform="translate(409.884 316)">or</text><text font-family="Yu Gothic,Yu Gothic_MSFontService,sans-serif" font-weight="400" font-size="16" transform="translate(369.884 335)">error</text><rect x="459" y="295" width="74" height="49" fill="#FFFFFF"/><text font-family="Yu Gothic,Yu Gothic_MSFontService,sans-serif" font-weight="400" font-size="16" transform="translate(468.163 315)">body</text><text font-family="Yu Gothic,Yu Gothic_MSFontService,sans-serif" font-weight="400" font-size="16" transform="translate(508.163 315)">or</text><text font-family="Yu Gothic,Yu Gothic_MSFontService,sans-serif" font-weight="400" font-size="16" transform="translate(468.163 334)">error</text><rect x="86" y="291" width="55" height="29" fill="#FFFFFF"/><text font-family="Yu Gothic,Yu Gothic_MSFontService,sans-serif" font-weight="400" font-size="16" transform="translate(95.4127 311)">body</text><text font-family="Yu Gothic,Yu Gothic_MSFontService,sans-serif" font-weight="400" font-size="24" transform="translate(150.647 650)">Fig.</text><text font-family="Yu Gothic,Yu Gothic_MSFontService,sans-serif" font-weight="400" font-size="24" transform="translate(197.814 650)">2</text><text font-family="Yu Gothic,Yu Gothic_MSFontService,sans-serif" font-weight="400" font-size="24" transform="translate(217.98 650)">リクエストの状態遷移</text><path d="M150.647 652.421 227.397 652.421 304.147 652.421 380.897 652.421 457.647 652.421 457.647 653.421 380.897 653.421 304.147 653.421 227.397 653.421 150.647 653.421Z" fill-rule="evenodd"/><text font-family="Yu Gothic,Yu Gothic_MSFontService,sans-serif" font-weight="400" font-size="12" transform="translate(510.365 200)">sc</text><text font-family="Yu Gothic,Yu Gothic_MSFontService,sans-serif" font-weight="400" font-size="12" transform="translate(522.699 200)">削除</text><text font-family="Yu Gothic,Yu Gothic_MSFontService,sans-serif" font-weight="400" font-size="12" transform="translate(546.699 200)">(IPC)</text><text font-family="Yu Gothic,Yu Gothic_MSFontService,sans-serif" font-weight="400" font-size="12" transform="translate(415.243 512)">sc</text><text font-family="Yu Gothic,Yu Gothic_MSFontService,sans-serif" font-weight="400" font-size="12" transform="translate(427.577 512)">削除</text><text font-family="Yu Gothic,Yu Gothic_MSFontService,sans-serif" font-weight="400" font-size="12" transform="translate(451.577 512)">(IPC)</text></g></svg>